<?xml version="1.0" encoding="UTF-8"?>
<!DOCTYPE svg PUBLIC "-//W3C//DTD SVG 1.1//EN" "http://www.w3.org/Graphics/SVG/1.1/DTD/svg11.dtd">
<!-- Creator: CorelDRAW 2020 (64-Bit) -->
<svg xmlns="http://www.w3.org/2000/svg" xml:space="preserve" width="13.708mm" height="26.0104mm" version="1.1" style="shape-rendering:geometricPrecision; text-rendering:geometricPrecision; image-rendering:optimizeQuality; fill-rule:evenodd; clip-rule:evenodd"
viewBox="0 0 104.52 198.33"
 xmlns:xlink="http://www.w3.org/1999/xlink"
 xmlns:xodm="http://www.corel.com/coreldraw/odm/2003">
 <defs>
  <style type="text/css">
   <![CDATA[
    .fil25 {fill:#FEFEFE;fill-rule:nonzero}
    .fil2 {fill:#E84136;fill-rule:nonzero}
    .fil1 {fill:#F5C985;fill-rule:nonzero}
    .fil13 {fill:#F7F7F7;fill-rule:nonzero}
    .fil17 {fill:#F3F4F6;fill-rule:nonzero}
    .fil8 {fill:#F3F4F4;fill-rule:nonzero}
    .fil9 {fill:#ECEDEC;fill-rule:nonzero}
    .fil3 {fill:#E6B26D;fill-rule:nonzero}
    .fil18 {fill:#E8EAE9;fill-rule:nonzero}
    .fil19 {fill:#E5E5E7;fill-rule:nonzero}
    .fil7 {fill:#D42C2C;fill-rule:nonzero}
    .fil20 {fill:#DDDFDF;fill-rule:nonzero}
    .fil4 {fill:#B43931;fill-rule:nonzero}
    .fil16 {fill:#B2DEEB;fill-rule:nonzero}
    .fil24 {fill:#A2D8E2;fill-rule:nonzero}
    .fil0 {fill:#5A372B;fill-rule:nonzero}
    .fil14 {fill:#8994C9;fill-rule:nonzero}
    .fil15 {fill:#818FBF;fill-rule:nonzero}
    .fil5 {fill:#616161;fill-rule:nonzero}
    .fil6 {fill:#515150;fill-rule:nonzero}
    .fil11 {fill:#283A90;fill-rule:nonzero}
    .fil22 {fill:#2A398A;fill-rule:nonzero}
    .fil12 {fill:#2A397E;fill-rule:nonzero}
    .fil23 {fill:#2A3876;fill-rule:nonzero}
    .fil10 {fill:#2D3066;fill-rule:nonzero}
    .fil21 {fill:#2C2F60;fill-rule:nonzero}
   ]]>
  </style>
 </defs>
 <g id="Layer_x0020_1">
  <metadata id="CorelCorpID_0Corel-Layer"/>
  <path class="fil0" d="M33.99 37.16l-0.02 -0.04c-0.08,-0.31 -0.21,-0.58 -0.42,-0.74 -0.45,-0.84 -0.83,-1.72 -1.14,-2.63 -0.04,-0.35 -0.07,-0.67 -0.1,-0.89 -0.23,-2.39 -0.26,-4.83 -0.35,-7.24 -0.13,-3.19 -0.07,-8.83 -2.03,-10.98 0.19,-1.11 0.27,-2.28 0.29,-3.26 0.08,-4.92 -1.93,-8.45 -4.8,-10.19 -2.39,-1.46 -4.71,-1.52 -6.93,-0.51 -1.74,0.02 -3.45,0.22 -5.1,1.27 -1.66,1.06 -3.22,2.62 -4.37,4.8 -1.97,3.73 -2.45,8.49 -2.31,13.16 -0.05,1.45 -0.01,2.9 0.09,4.35 0.14,2.1 0.43,4.44 0.33,6.64 -0.29,1.4 -0.79,2.63 -1.73,3.49 -0.59,0.54 -0.73,1.67 -0.44,2.58 2.41,7.5 8.18,8.5 13.01,8.74 2.67,0.13 5.38,0.45 8.03,-0.12 3.05,-0.66 5.65,-2.77 8,-5.77 0.52,-0.66 0.42,-1.99 0,-2.67z"/>
  <path class="fil1" d="M42.12 40.2c1.82,2.01 3.8,3.87 5.78,5.72 1.38,1.29 2.68,2.85 4.17,4.01 1.63,1.27 2.87,0.58 4.78,0.03 3.52,-1.02 7.16,-1.5 10.71,-2.39 0.99,-0.25 4.49,-2.09 7.33,-2.78 -0.35,1.53 -0.33,3.17 -0.29,4.77l-0.31 -0.06c-4.42,1.18 -9.75,4.49 -10.89,4.95 -2.94,1.2 -6.19,2.44 -8.96,2.68 -0.55,0.05 -1.09,0.08 -1.64,0.06 -2.3,-0.08 -3.99,-0.87 -5.81,-2.23 -1.26,-0.94 -2.65,-1.83 -4.03,-2.76 0.02,-4.03 0.01,-8.07 -0.83,-11.99z"/>
  <path class="fil2" d="M28.28 36.23c2.07,-0.44 2.25,-1.09 2.56,-1.12 2.24,-0.21 0,-3.04 2.14,-2.26 2.13,0.77 4.12,1.51 5.98,2.7 4.61,2.96 9.38,11.41 13.25,13.13 1.2,0.54 2.59,0.13 3.83,0.55 1,0.33 1.59,1.03 2,1.96 0.71,1.61 1.24,3.68 1.19,5.44 -0.02,0.54 -0.29,1.06 -0.84,1.23 -3.91,1.16 -7.7,0.04 -11.09,-2.01 -2.7,-1.63 -5.08,-3.73 -7.75,-5.4 -2.14,-1.33 -4.37,-2.49 -6.5,-3.84 -3.56,-2.25 -7.13,-5.23 -7.88,-9.47 -0.03,-0.19 1.44,-0.56 3.13,-0.92z"/>
  <path class="fil1" d="M49 188.33c-0.74,-0.86 -4.21,-3.95 -4.48,-4.13 0.06,-0.02 -0.49,-21.1 -0.56,-22.28 -0.5,-8.67 -0.5,-17.36 -0.93,-26.04 -0.33,-6.81 -1.09,-13.55 -2.06,-20.28 -0.02,-1.63 -0.15,-3.26 -0.32,-4.86 -0.37,-3.42 -0.88,-6.83 -1.24,-10.26 -3,-6.42 -4.23,-13.76 -7.44,-20.07 0.04,0.58 0.06,1.17 0.07,1.75 0.01,1.62 -1.7,2.44 -2.97,1.91 -0.13,0.73 -0.33,1.44 -0.64,2.14 -0.48,1.06 -2.25,1.4 -3.13,0.62 0.05,1.21 0.09,2.42 0.09,3.63 0.01,1.12 -0.95,1.93 -1.95,2.08 -0.07,1.82 -0.19,3.64 -0.45,5.46 -0.14,0.97 -0.98,1.47 -1.86,1.5 0.32,0.25 0.69,0.42 1.12,0.49 0.49,0.07 0.99,0.16 1.48,0.24 0.29,2.74 0.39,5.52 0.66,8.2 0.63,6.05 2.73,11.84 4.55,17.61 0.97,3.07 1.86,6.16 2.5,9.32 0.65,3.21 0.93,6.52 1.25,9.79 0.33,3.38 0.5,6.78 0.93,10.15 0.43,3.35 1.05,6.67 1.77,9.97 1.37,6.28 3.04,12.49 4.43,18.77l0.04 0.03c-0.36,2.17 0.94,4.2 2.19,5.89 1.22,1.65 2.91,3.71 5.18,3.65 1.18,-0.03 2.34,-0.77 2.72,-1.92 0.43,-1.27 -0.15,-2.43 -0.98,-3.38z"/>
  <path class="fil1" d="M21.98 92.08c-0.54,-1.32 -1.69,-2.26 -3.15,-1.99 0.21,-1.16 0.44,-1.81 0.67,-1.81 -3.45,-0.01 -6.91,-0.02 -10.36,-0.07 -0.47,-0.86 -1.42,-1.46 -2.4,-1.48 -0.06,0.37 -0.23,0.73 -0.53,1.07 -1.14,1.27 -1.96,3.15 -2.47,4.98 -0.51,8.91 -1.2,17.34 -0.1,26.36 1.07,8.82 2.39,17.83 1.75,26.74 -0.45,6.41 0.86,12.74 1.81,19.04 0.65,4.3 2.32,15.8 1.4,17.4 -1.01,1.78 -7.76,9.22 -3.54,10.63 1.42,0.47 2.53,-0.31 3.51,-1.25 0.56,0.12 1.16,-0.07 1.5,-0.75 0.75,-1.51 2.25,-2.54 3.14,-3.97 0.91,-1.47 1.72,-3.17 1.43,-4.95 -0.11,-0.68 -0.31,-1.2 -0.28,-2.08 0.03,-1.19 0.07,-2.37 0.11,-3.56 0.16,-4.47 0.39,-8.94 0.64,-13.41 0.5,-8.94 1.08,-17.89 1.32,-26.85 0.28,-2.05 0.59,-4.09 0.93,-6.13 1.19,-7.21 2.58,-14.4 3.58,-21.64 0.35,-2.52 0.98,-5.28 1.36,-7.95 0.39,-2.71 0.74,-5.73 -0.33,-8.35z"/>
  <path class="fil1" d="M23.03 33.57c-1.68,1.58 -5.37,2.22 -6.95,-0.04 -0.74,0.03 -1.51,-0.74 -1.25,-1.95l0.08 -0.36 0.12 -0.63c0.12,-0.73 0.21,-1.47 0.29,-2.22 0.04,-0.3 0.07,-0.6 0.11,-0.9l0 -0.58c-0.01,-0.44 0.09,-0.78 0.25,-1.03l0.04 -0.18 0.11 -0.47c0.4,-1.65 2.03,-1.33 2.33,0.01 0.29,0.16 0.53,0.47 0.67,0.94l0.06 0.24c0.08,0.36 0.13,0.73 0.14,1.11l0.01 0.01 0.04 0.02c0.43,-0.31 1,-0.28 1.39,0.16l0.55 -0.07 0.12 -0.22 0.15 -0.46c0.51,-1.08 1.89,-0.68 2.17,0.5 0.06,0.25 0.08,0.54 0.02,0.85 -0.06,0.36 -0.1,0.72 -0.12,1.08 0.02,0.29 0.04,0.58 0.06,0.86l0 0c0.04,0.52 0.08,1.04 0.09,1.55 0.12,0.61 0,1.31 -0.49,1.77z"/>
  <path class="fil3" d="M23.48 28.3c-0.06,0.36 -0.1,0.72 -0.12,1.08 0.02,0.29 0.04,0.58 0.06,0.86l0 0c0,0 -2.74,5.22 -8.39,0.35 0.04,-0.3 0.36,-2.81 0.4,-3.11l0 -0.58c-0.01,-0.44 0.09,-0.78 0.25,-1.03l0.04 -0.18 3.17 0.73 2.4 0.55 2.17 0.5c0.06,0.25 0.08,0.54 0.02,0.85z"/>
  <path class="fil1" d="M26.94 6.51c-0.43,-0.34 -0.96,-0.61 -1.62,-0.79 -1.26,-0.36 -3.08,0.42 -4.36,0.35 -2.2,-0.11 -5.33,-0.6 -6.85,1.36 -1.41,1.82 -0.73,4.24 -0.72,6.45 0,0.46 -0.02,0.92 -0.06,1.37l-0.07 -0.05c-0.54,-0.37 -1.14,-0.54 -1.78,-0.44 -0.49,0.08 -1.04,0.49 -1.06,1.03 -0.08,1.77 1,3.2 2.43,4.15l0.04 0.02c0.01,0.74 0.08,1.49 0.28,2.25 0.69,2.62 2.67,4.29 4.72,5.9 1.89,1.49 3.89,1.53 6.06,0.57 2.2,-0.98 3.08,-2.84 3.7,-5.06 0.67,-2.41 1.28,-4.77 1.03,-7.28 -0.31,-3.09 0.93,-7.72 -1.75,-9.81z"/>
  <path class="fil1" d="M9.78 61.52c-0.1,-0.42 -0.21,-0.83 -0.32,-1.25 -0.11,-0.41 -0.23,-0.83 -0.35,-1.24l0 -0c-0.12,-0.41 -0.24,-0.82 -0.37,-1.23l0 0c-0.13,-0.41 -0.26,-0.82 -0.39,-1.23l0 -0c-0.74,-2.32 -1.53,-4.63 -2.08,-7.01 -0.51,-2.2 -0.81,-4.4 -1.1,-6.63 -0.17,-1.29 -0.71,-2.53 -0.87,-3.82 1.42,-1.3 2.63,-2.8 3.91,-4.27l0.09 -0.06c1.16,-0.49 2.32,-1 3.47,-1.54l0.55 -0.26c0.47,-0.23 1,-0.62 1.55,-0.94 0.44,-0.26 0.88,-0.46 1.31,-0.51l0.2 -0.01c0.46,0.01 0.91,0.09 1.37,0.31 1.12,0.51 1.92,1.41 3.29,1.13 0.76,-0.15 1.4,-0.66 2.06,-1.07 0.49,-0.3 0.96,-0.44 1.44,-0.49 0.48,-0.05 0.97,0.01 1.49,0.09l0.62 0.11c0.64,0.12 1.31,0.2 2,0.26 0.99,0.09 2.01,0.16 3.01,0.32l0.21 0.03 0.54 0.1 0.4 0.09 0.33 0.09 0.07 0.02 0 0c-0.55,4.26 0.21,8.32 1.32,12.46 0.51,1.92 1.05,3.84 1.39,5.8l0.07 0.44 0.02 0.14c0.04,0.5 0.09,1.01 0.09,1.51 0.01,0.44 -0.01,0.89 -0.04,1.33 -0.02,0.25 -0.05,0.5 -0.06,0.76l-0 0.09 -0.02 0.13c-0.69,4.08 -1.99,8.07 -2.18,12.23 -0.1,2.18 0.17,4.48 0.88,6.55 0.37,1.07 0.8,2.11 1.22,3.16 0.28,3.18 1.09,6.32 1.37,9.51 -1.24,0.83 -2.85,1.36 -3.99,1.65 -2.48,0.62 -5.08,0.6 -7.61,0.39 -4.14,-0.33 -8.26,-1.32 -12.23,-2.5l-0.26 -0.07 -0.3 -0.08c-0.81,-0.2 -1.94,-0.44 -3.02,-0.8l-0.66 -0.23 -0.28 -0.11c-0.47,-0.19 -0.9,-0.41 -1.26,-0.66l-0.18 -0.13 -0.1 -0.08 -0.09 -0.08 -0.09 -0.08 -0.08 -0.08 -0.09 -0.1 -0.06 -0.08 -0.13 -0.18 -0.06 -0.09 -0.04 -0.07 -0.06 -0.13 -0.07 -0.2 -0.05 -0.53 0 -0.06 0.02 -0.17 0.04 -0.23 0.09 -0.34 0.04 -0.11 0.17 -0.45 0.1 -0.22 0.32 -0.66 0.22 -0.44 0.2 -0.43 0.18 -0.43c0.82,-2.23 1.63,-4.47 2.45,-6.7 0.14,-0.38 0.27,-0.76 0.38,-1.12 0.11,-0.37 0.21,-0.73 0.3,-1.09l0.15 -0.72 0.12 -0.71c0.06,-0.46 0.11,-0.91 0.13,-1.36l0.01 -0.1c0.07,-1.52 -0.09,-3.07 -0.46,-4.78l-0.16 -0.72z"/>
  <path class="fil4" d="M36.03 57.75l-0.06 0.11 -0.01 0.02c-0.36,0.65 -0.61,1.42 -0.8,2.21 -1.08,0.06 -2.45,-0.18 -4.19,-0.95 2.01,0.32 3.74,-0.42 5.06,-1.39z"/>
  <path class="fil5" d="M42.47 116.13c-0.71,1.85 -2.17,3.09 -4.73,3.27 -7.02,0.51 -14.13,0.38 -21.16,0.55 -3.98,0.09 -10.65,1.31 -14.29,-1.37 -0.26,-0.2 -0.51,-0.41 -0.74,-0.65 -0.37,-0.38 -0.65,-0.81 -0.84,-1.33 -0.52,-1.41 -0.38,-2.98 -0.22,-4.48 0.88,-7.84 2.11,-16.02 4.28,-23.6 0.23,-0.8 0.85,-6.07 3,-6.47l0.36 -0.05 0.43 -0.02c2.36,0.01 4.5,1.31 6.74,1.84 3.57,0.85 7.32,1.52 11,1.42 1.29,-0.04 2.85,-0.2 4.36,-0.14 -0.02,-0.42 -0.03,-0.84 -0.03,-1.27 0.01,-3.03 4.01,-3.49 5.21,-1.37 0.21,0.37 0.34,0.83 0.33,1.37 0,7.14 2.57,14.58 4.2,21.51l0.05 0.23c0.49,2.12 2.87,8.47 2.06,10.56z"/>
  <path class="fil6" d="M8.04 87.06c-1.74,3.61 -2.3,7.88 -2.84,11.93 -0.46,3.49 -1,6.97 -1.47,10.46 -0.38,2.83 -0.75,6.04 -1.44,9.13 -0.26,-0.2 -0.51,-0.41 -0.74,-0.65 -0.37,-0.38 -0.65,-0.81 -0.84,-1.33 -0.52,-1.41 -0.38,-2.98 -0.22,-4.48 0.88,-7.84 2.11,-16.02 4.28,-23.6 0.23,-0.8 0.85,-6.07 3,-6.47 0.95,1.41 1.07,3.37 0.28,5z"/>
  <path class="fil6" d="M5.37 92.12c0,0 6.93,-0.79 4.98,-5.19 -2.89,-6.5 -4.98,5.19 -4.98,5.19z"/>
  <path class="fil6" d="M32.4 87.03c2.04,4.9 4.09,5.09 4.47,5.09 -0.76,-2.71 -0.83,-5.45 -0.83,-8.28 0,-0.54 -0.12,-0.99 -0.33,-1.37 -2.41,0.85 -4.26,2.26 -3.3,4.55z"/>
  <path class="fil2" d="M34.75 61.95c-0.58,2.78 -0.72,5.68 -0.3,8.49 0.16,1.07 0.41,2.13 0.58,3.2 0.08,0.5 0.15,1 0.22,1.49l0.05 0.39c0.04,0.28 0.07,0.57 0.11,0.85 0.15,1.17 0.3,2.34 0.48,3.5 0.13,0.89 0.28,1.76 0.45,2.64l0 0.02 0.01 0.12c0.03,0.41 0.06,0.82 0.09,1.23l0.01 0.18c0.03,0.45 0.06,0.91 0.09,1.36 0.02,0.32 0.03,0.64 0.05,0.96 -1.28,0.98 -3.1,1.59 -4.35,1.9 -2.48,0.62 -5.08,0.6 -7.61,0.39 -4.14,-0.33 -8.26,-1.32 -12.23,-2.5l-0.26 -0.07 -0.3 -0.08c-0.81,-0.2 -1.94,-0.44 -3.02,-0.8l-0.66 -0.23 -0.28 -0.11c-0.47,-0.19 -0.9,-0.41 -1.26,-0.66l-0.18 -0.13 -0.1 -0.08 -0.09 -0.08 -0.09 -0.08 -0.08 -0.08 -0.09 -0.1 -0.06 -0.08 -0.13 -0.18 -0.06 -0.09 -0.04 -0.07 -0.06 -0.13 -0.07 -0.2 -0.06 -0.53 0.01 -0.06 0.02 -0.17 0.04 -0.23 0.09 -0.34 0.04 -0.11 0.17 -0.45 0.1 -0.22 0.32 -0.66 0.22 -0.44 0.2 -0.43 0.18 -0.43c0.82,-2.23 1.63,-4.47 2.45,-6.7 0.14,-0.38 0.26,-0.76 0.38,-1.12 0.11,-0.37 0.21,-0.73 0.3,-1.09l0.15 -0.72 0.12 -0.71c0.06,-0.45 0.11,-0.91 0.13,-1.36l0.01 -0.1c0.07,-1.52 -0.09,-3.07 -0.47,-4.78l-0.16 -0.72c-0.1,-0.42 -0.21,-0.83 -0.32,-1.25 -0.11,-0.41 -0.23,-0.83 -0.35,-1.24 -0.12,-0.41 -0.24,-0.82 -0.37,-1.23 -0.13,-0.41 -0.26,-0.82 -0.39,-1.23 0.7,-1.72 1.18,-3.51 1.37,-5.36l0 -0.02c0.06,-0.64 0.1,-1.29 0.09,-1.95 -0.03,-1.99 -0.4,-4.01 -0.72,-5.96 -0.41,-2.49 -1.07,-5.54 -2.57,-7.73 0.34,-0.14 0.68,-0.29 1.01,-0.44 1.42,-0.6 2.84,-1.21 4.23,-1.87 0.07,2.63 0.46,5.11 2.54,7.06 2.23,2.1 5.39,3.07 8.41,3.19 1.43,0.05 2.91,-0.22 4.1,-1.02 3.09,-2.11 2.95,-7.85 0.84,-10.6 0.99,0.09 2.01,0.16 3.01,0.32l0.08 0.19 0.13 -0.16 0.54 0.11 0.4 0.09 0.33 0.09 0.07 0.02c0.31,0.09 0.62,0.2 0.92,0.32 0.09,3.29 -0.1,6.59 1.18,9.71 1.54,3.77 4.84,8.25 3.43,12.52 -0.36,1.08 -1.14,1.73 -1.69,2.65l-0.06 0.11 -0.01 0.02c-0.36,0.65 -0.61,1.42 -0.8,2.21 -0.16,0.64 -0.28,1.28 -0.4,1.86z"/>
  <path class="fil7" d="M12.85 60.52c0.88,4.12 1.07,10.91 0,13.57 -0.81,2 -3,8.21 -4.03,11.14 -1.75,-0.57 -3.38,-1.43 -3.31,-2.85 0.06,-1.21 0.95,-2.42 1.36,-3.53 0.82,-2.23 1.63,-4.47 2.45,-6.7 1.25,-3.42 1.4,-6.29 0.62,-9.9 -0.41,-1.92 -1.92,-6.57 -2.52,-8.44 0.7,-1.72 2.11,-0.73 2.31,-2.58 -0.04,0.61 0.26,7.32 3.13,7.7 2.92,0.39 4.9,0 4.9,0 0,0 -2.2,2.21 -4.9,1.6z"/>
  <path class="fil0" d="M29.3 8.73l-0.15 -0.46c-0.27,-0.41 -0.59,-0.71 -0.99,-0.99l-0.55 -0.16c-0.38,-0.34 -0.76,-0.68 -1.13,-1.03l-0.31 -0.63c-0.17,-0.42 -0.49,-0.76 -0.91,-0.86 -0.21,-1.02 -1.06,-1.93 -2.02,-2.2 -1.48,-0.41 -2.76,0.47 -3.34,1.78 -0.71,-0.71 -1.8,-1.1 -2.71,-0.74 -2.18,0.86 -3.99,2.16 -5.65,3.81 -0.39,0.38 -0.63,0.86 -0.73,1.37 -1.94,0.55 -2.39,3.01 -1.36,4.42l-0.47 0.31c-0.9,0.7 0.36,1.95 1.25,1.25 1.07,-0.83 2.72,0.97 3.9,0.66 0.8,-0.2 0.99,-0.89 1.56,-1.36 0.42,-0.35 0.34,-0.38 0.98,-0.12 1.82,0.75 3.85,0.92 5.79,0.67 2.06,-0.26 3.61,-1.11 5.41,-2.01 1.66,-0.83 2.84,-2.08 1.43,-3.71z"/>
  <path class="fil1" d="M3.06 53.13l0 -12.55c1.54,1.19 2.83,2.89 4.12,4.24 1.51,1.59 2.89,3.29 4.23,5.02 -0.91,3.75 -1.15,7.62 -1.41,11.45 -0.12,1.88 -0.5,3.88 -0.45,5.76 0.06,2.07 1.37,2.59 3.01,3.71 3.02,2.07 5.7,4.58 8.65,6.76 1.16,0.86 7.91,3.56 8.73,6.13 -2.31,-0.12 -2.86,-0.26 -5.17,-0.3 -3.7,-2.35 -10.53,-4.14 -11.52,-4.68 -2.8,-1.51 -5.81,-3.24 -7.76,-5.22 -0.39,-0.39 -0.75,-0.8 -1.08,-1.24 -1.4,-1.82 -1.86,-3.63 -1.97,-5.91 -0.09,-2 -0.38,-4.09 -0.53,-6.22 -0.13,-1.81 -0.21,-3.62 -0.3,-5.44 0.75,-0.06 1.45,-0.57 1.45,-1.53z"/>
  <path class="fil2" d="M6.76 35.51c1.17,1.09 2.1,3.61 3.72,5.48 1.07,1.25 3.5,7.16 4.12,8.76l-0.22 0.18c-1.1,0.99 -1.9,2.18 -2.49,3.53l0 -0.09 -0.03 0.16 -0.02 0.05c-0.1,0.23 -0.13,0.48 -0.12,0.73 -0.26,1.47 -0.52,2.94 -0.79,4.41 -0.44,2.4 -0.99,5.24 -0.33,7.66 0.35,1.27 1.54,2.09 2.01,3.31 0.37,0.98 0.21,1.88 -0.25,2.79 -0.8,1.57 -2.06,3.29 -3.45,4.37 -0.43,0.33 -1.01,0.45 -1.48,0.13 -3.37,-2.29 -4.92,-5.92 -5.48,-9.85 -0.45,-3.12 -0.33,-6.29 -0.74,-9.41 -0.32,-2.5 -0.85,-4.96 -1.16,-7.46 -0.47,-3.8 2.76,-13.73 6.71,-14.73z"/>
  <path class="fil6" d="M12.47 187.94c-1.1,1.46 -2.51,3 -4.38,3.39 -2.25,0.47 -3.14,-0.75 -3.83,-2.52 -2.59,1.69 -4.45,9.2 0.12,9.51 2.39,0.16 4.12,-1.74 5.26,-3.59 1.69,-2.75 4.73,-7.03 5.44,-10.22 0,-4.22 -2.13,2.82 -2.6,3.44z"/>
  <path class="fil6" d="M41.05 187.94c1.1,1.46 2.51,3 4.38,3.39 2.25,0.47 3.14,-0.75 3.83,-2.52 2.59,1.69 4.45,9.2 -0.12,9.51 -2.38,0.16 -4.12,-1.74 -5.26,-3.59 -1.69,-2.75 -5.57,-7.42 -4.16,-9.69 0.39,0.72 0.85,2.29 1.32,2.91z"/>
  <path class="fil1" d="M77.68 46.34c0.24,0.4 1.11,-0.17 1.54,-0.38l0.3 -0.08c0.05,-0.27 0.14,-0.53 0.32,-0.77l-0.45 0.03c-0.54,0.06 -2.09,0.57 -1.72,1.19zm3.77 1.45c-0.43,0.22 -1.1,-0.04 -0.9,-0.57 0.1,-0.26 0.13,-0.53 0.16,-0.79l0.02 -0.37c-0.06,0.33 -0.04,0.67 -0.18,0.98 -0.13,0.28 -0.44,0.47 -0.78,0.4l-0.05 -0.02c-0.42,0.59 -1.07,1.13 -1.61,1.5 -1.35,0.93 -2.85,0.82 -4.4,0.79 -1.01,-0.02 -2.3,0.09 -2.76,-0.81 -0.14,-0.28 -0.21,-0.63 -0.21,-0.98l-0.16 0.06c-0.78,0.23 -1.05,-0.8 -0.27,-1.04 0.33,-0.1 0.63,-0.27 0.91,-0.48l0.29 -0.31 0.28 -0.14 0.66 -0.52c0.93,-0.65 1.9,-1.29 2.88,-1.88 1.37,-0.83 2.48,-1.09 4.05,-0.83 1.15,0.2 2.76,0.42 3.54,1.23 0.97,1.01 -0.01,2.35 -0.23,3.51 -0.11,0.6 -1.07,0.72 -1.23,0.26z"/>
  <path class="fil8" d="M77.35 190.32l0 -7.37c-0.94,0.06 -2.38,0.13 -4.04,0.13 -3.8,0 -8.78,-0.35 -11.67,-1.98 0,-3.23 0.05,-8.12 0.16,-14l-9.8 0c0.89,9.56 6.01,17.52 12.98,19.74l9.06 2.89c1.09,0.35 2.2,0.54 3.31,0.59zm1.53 -0.03c1.02,-0.08 2.03,-0.29 3.02,-0.63l9.7 -3.26c6.79,-2.28 11.78,-10.01 12.75,-19.31l-9.91 0c0.1,5.88 0.16,10.78 0.16,14 -2.89,1.63 -7.87,1.98 -11.67,1.98 -1.66,0 -3.1,-0.07 -4.04,-0.13l0 7.34z"/>
  <path class="fil9" d="M52 167.1l9.8 0c0.28,-15.68 0.92,-38.34 1.86,-54.89l-3.15 -3.74 -0.1 -0.29c0,-0.27 0.23,-0.45 0.46,-0.45 0.12,0 0.24,0.05 0.34,0.16l2.54 2.96c0.05,-0.9 0.11,-1.78 0.16,-2.64l-4.14 -4.93 -0.09 -0.26c0,-0.24 0.2,-0.39 0.4,-0.39 0.11,0 0.22,0.04 0.3,0.14l3.62 4.22c0.53,-7.96 1.15,-13.8 1.84,-15.58 0,0 0,0 -0.01,-6.89l0 0c-1.07,-3.1 -2.95,-5.95 -2.08,-9.97 1,-4.61 4.66,-10.95 6.83,-14.44l-9.95 4.69 -0.55 -0.2 0.2 -0.55 11.13 -5.24c0.16,-0.24 0.3,-0.46 0.41,-0.63l0.3 0.11c-0.01,0.06 -0.02,0.13 -0.02,0.2l5.28 -2.49 0 -2.71c-2.12,0.13 -4.23,0.87 -6.18,2.21l-10.86 5.5c-5.18,3.57 -8.45,6.89 -8.45,14.85l0 88.28c0,1 0.05,2 0.14,2.97zm42.43 0l9.91 0c0.12,-1.09 0.18,-2.21 0.18,-3.34l0 -87.82c0,-8.02 -3.31,-11.37 -8.54,-14.91l-11.18 -5.6c-1.87,-1.27 -3.89,-1.98 -5.92,-2.14l0 2.94 5.3 2.4c-0.01,-0.13 -0.03,-0.25 -0.04,-0.36l0.3 -0.11c0.14,0.22 0.32,0.5 0.53,0.82l11.16 5.05 0.2 0.55 -0.38 0.25 -0.17 -0.04 -10.01 -4.53c2.18,3.52 5.75,9.74 6.73,14.28 0.87,4.02 -1.01,6.86 -2.08,9.97l0 0 -0.01 4.32 2.75 3.21 0.07 0.41 -0.08 0.21c-0.06,0.16 -0.22,0.25 -0.37,0.25 -0.11,0 -0.22,-0.05 -0.3,-0.14l-2.07 -2.46 0 1.1c0.18,0.46 0.35,1.2 0.52,2.18l4.84 5.64 0.08 0.46 -0.09 0.24c-0.08,0.18 -0.25,0.28 -0.42,0.28 -0.13,0 -0.25,-0.05 -0.34,-0.16l-3.76 -4.47c1.68,12.91 2.8,49.26 3.2,71.53zm-15.55 -93.14c5.45,-3.74 5.66,-10.88 5.4,-14.38l-5.4 -2.44 0 16.82zm-1.53 0l0 -16.22c-1.01,2.02 -2.74,5.86 -3.16,9.15l2.27 2.52 -0.3 3.6c0.37,0.33 0.76,0.65 1.19,0.94zm-4.57 -6.36l0.91 -0.69c0.44,-3.7 2.53,-8.08 3.49,-9.93l-5.21 2.45c-0.16,1.94 -0.19,5.1 0.81,8.16z"/>
  <path class="fil10" d="M77.53 56.21l0.83 0 0 -4.04c0,-0.56 0.45,-1.01 1.01,-1.01 1.02,0 1.84,-0.83 1.84,-1.84l0 -3.02c0,-1.02 -0.83,-1.84 -1.84,-1.84l-2.86 0c-1.02,0 -1.84,0.83 -1.84,1.84l0 0.9 0.83 0 0 -0.9c0,-0.56 0.46,-1.01 1.01,-1.01l2.86 0c0.56,0 1.01,0.45 1.01,1.01l0 3.02c0,0.56 -0.45,1.01 -1.01,1.01 -1.02,0 -1.84,0.83 -1.84,1.84l0 4.04z"/>
  <polygon class="fil10" points="95.95,64.82 96.33,64.58 96.13,64.03 78.01,55.83 77.66,55.83 60.25,64.03 60.05,64.58 60.6,64.78 77.84,56.66 95.78,64.78 "/>
  <path class="fil11" d="M61.64 181.1c0,-17.35 1.56,-82.96 4.18,-89.71 2.62,-6.75 -3.53,-10.19 -2.09,-16.86 1.23,-5.7 6.54,-14.05 8.07,-16.37l0.3 0.11c-0.36,2.68 -1.06,12.08 6.03,16.17 7.09,-4.09 6.39,-13.49 6.03,-16.17l0.3 -0.11c1.52,2.32 6.83,10.68 8.07,16.37 1.45,6.67 -4.7,10.11 -2.09,16.86 2.62,6.75 4.17,72.36 4.17,89.71 -4.58,2.57 -14.38,1.97 -16.48,1.8 -2.1,0.17 -11.9,0.77 -16.48,-1.8z"/>
  <path class="fil12" d="M90.42 84.5c0,0 -14.3,1.38 -24.62,0 0.01,6.89 0.01,6.89 0.01,6.89 0,0 6.5,2.34 12.3,1.73 5.79,-0.61 12.3,-1.73 12.3,-1.73l0.01 -6.89z"/>
  <path class="fil13" d="M95.34 100.19c0.17,0 0.35,-0.1 0.42,-0.28l0.09 -0.24 -0.08 -0.46 -4.84 -5.64c0.1,0.58 0.2,1.25 0.3,1.99l3.76 4.47c0.09,0.11 0.22,0.16 0.34,0.16z"/>
  <path class="fil14" d="M91.23 95.56c-0.1,-0.74 -0.19,-1.41 -0.3,-1.99l-1.7 -1.99c-0.34,0.06 -0.73,0.12 -1.18,0.19l3.18 3.78zm-8.88 -10.56c0.41,-0.01 0.8,-0.03 1.18,-0.05l-1.95 -2.26c-0.09,-0.11 -0.22,-0.16 -0.34,-0.16 -0.23,0 -0.46,0.18 -0.46,0.46l0.11 0.29 1.45 1.72z"/>
  <path class="fil15" d="M88.05 91.78c0.45,-0.07 0.85,-0.13 1.18,-0.19l-5.69 -6.63c-0.39,0.02 -0.78,0.04 -1.18,0.05l5.69 6.78z"/>
  <path class="fil13" d="M92.79 92.89c0.15,0 0.3,-0.09 0.37,-0.25l0.08 -0.21 -0.07 -0.41 -2.75 -3.21 -0 1.47 2.07 2.46c0.08,0.09 0.19,0.14 0.3,0.14z"/>
  <path class="fil14" d="M85.83 84.84c0.39,-0.02 0.76,-0.05 1.1,-0.07l-6.18 -7.2c-0.08,-0.1 -0.19,-0.14 -0.3,-0.14 -0.21,0 -0.4,0.16 -0.4,0.4l0.09 0.26 5.68 6.76z"/>
  <path class="fil15" d="M90.42 90.29l0 -1.47 -3.48 -4.05c-0.35,0.02 -0.72,0.05 -1.1,0.07l4.58 5.45z"/>
  <path class="fil13" d="M63.66 112.21c0.02,-0.47 0.05,-0.92 0.08,-1.38l-2.54 -2.96c-0.09,-0.11 -0.22,-0.16 -0.34,-0.16 -0.23,0 -0.46,0.18 -0.46,0.45l0.1 0.29 3.15 3.74z"/>
  <path class="fil14" d="M74.94 125.38c0.17,0 0.35,-0.1 0.42,-0.28l0.09 -0.24 -0.08 -0.46 -11.64 -13.57c-0.03,0.45 -0.05,0.91 -0.08,1.38l10.93 13.01c0.09,0.11 0.22,0.16 0.35,0.16z"/>
  <path class="fil13" d="M63.9 108.2c0.02,-0.41 0.05,-0.82 0.08,-1.23l-3.62 -4.22c-0.08,-0.09 -0.19,-0.14 -0.3,-0.14 -0.2,0 -0.4,0.16 -0.4,0.39l0.09 0.26 4.14 4.93z"/>
  <path class="fil14" d="M72.39 118.08c0.15,0 0.3,-0.09 0.37,-0.25l0.08 -0.21 -0.07 -0.41 -8.8 -10.25c-0.03,0.4 -0.05,0.81 -0.08,1.23l8.19 9.74c0.08,0.09 0.19,0.14 0.3,0.14z"/>
  <path class="fil16" d="M74.17 67.07c0.53,-4.72 3.88,-10.68 3.91,-10.74l-0.43 -0.24c-0.04,0.06 -3.44,6.11 -3.98,10.93l0.5 0.05z"/>
  <polygon class="fil16" points="74,66.68 76.46,69.41 75.74,77.95 70.37,77.27 71.3,68.7 "/>
  <path class="fil17" d="M77.35 190.33l1.53 0 0 -0.04c-0.34,0.03 -0.67,0.04 -1.01,0.04 -0.17,0 -0.35,-0 -0.52,-0.01l0 0.01z"/>
  <path class="fil18" d="M78.88 53.29l0 -0.33 -0.52 0 0 0.3c0.17,0.01 0.35,0.02 0.52,0.03zm-1.53 -0.01c0.06,-0 0.12,-0.01 0.18,-0.01l0 -0.31 -0.18 0 0 0.32z"/>
  <path class="fil19" d="M77.87 190.33c0.34,0 0.67,-0.01 1.01,-0.04l0 -7.34c-0.31,-0.02 -0.57,-0.04 -0.76,-0.06 -0.19,0.02 -0.45,0.04 -0.77,0.06l0 7.37c0.17,0.01 0.35,0.01 0.52,0.01z"/>
  <path class="fil20" d="M78.11 74.44c0.27,-0.15 0.52,-0.31 0.76,-0.48l0 -16.82 -0.99 -0.45c-0.13,0.24 -0.32,0.61 -0.54,1.05l0 16.22c0.24,0.17 0.5,0.33 0.77,0.48zm0.76 -18.22l0 -2.94c-0.17,-0.01 -0.35,-0.02 -0.52,-0.03l0 2.73 0.52 0.24zm-1.53 -0.24l0.18 -0.09 0 -2.63c-0.06,0 -0.12,0.01 -0.18,0.01l0 2.71z"/>
  <polygon class="fil21" points="78.36,55.99 78.36,52.95 77.53,52.95 77.53,55.9 77.66,55.83 78.01,55.83 "/>
  <path class="fil21" d="M78.88 57.13l0 -0.91 -0.52 -0.24 -0.35 -0.16 -0.35 0 -0.13 0.06 -0.18 0.09 0 0.66c0.18,-0.35 0.3,-0.55 0.3,-0.56l0.43 0.24c-0.01,0.01 -0.08,0.13 -0.19,0.36l0.99 0.45z"/>
  <path class="fil22" d="M77.35 182.96c0.31,-0.02 0.57,-0.04 0.77,-0.06 0.19,0.02 0.45,0.04 0.76,0.06l0 -89.91c-0.26,0.03 -0.51,0.06 -0.76,0.08 -0.26,0.03 -0.51,0.05 -0.77,0.06l0 89.77zm0 -97.84c0.52,-0 1.03,-0.01 1.53,-0.02l0 -11.14c-0.24,0.17 -0.5,0.33 -0.76,0.48 -0.27,-0.16 -0.52,-0.32 -0.77,-0.48l0 11.16z"/>
  <path class="fil23" d="M77.35 93.19c0.26,-0.02 0.51,-0.04 0.77,-0.06 0.25,-0.03 0.51,-0.05 0.76,-0.08l0 -7.94c-0.5,0.01 -1.01,0.01 -1.53,0.02l0 8.07z"/>
  <path class="fil24" d="M77.35 57.74c0.22,-0.45 0.41,-0.81 0.54,-1.05 0.12,-0.22 0.19,-0.35 0.19,-0.36l-0.43 -0.24c-0.01,0.01 -0.12,0.21 -0.3,0.56l0 1.09z"/>
  <path class="fil1" d="M24.39 78.79c0,0 1.97,-0.61 2.85,-1.72 0.67,-0.84 3.06,-2.91 2.35,-1.31 -0.71,1.6 -1.37,1.49 -0.67,2.06 0.71,0.57 3.71,0.05 3.61,1.35 -0.12,1.47 -0.31,0.94 -0.06,2.18 0.31,1.58 -0.33,2.53 -1.23,2.66 -0.9,0.13 -4.76,0.09 -6.08,-0.35 -1.31,-0.44 -0.77,-4.87 -0.77,-4.87z"/>
  <path class="fil1" d="M78.9 46.05l0.13 -0.09 0.11 -0.09 0.32 -0.28c0.3,-0.24 0.61,-0.44 0.98,-0.52 0.45,-0.1 0.98,0.13 1.09,0.62 0.1,0.45 -0.13,0.99 -0.62,1.09l-0.1 0.02 -0.1 0.05 -0.11 0.08 -0.08 0.06c-0.23,0.21 -0.47,0.41 -0.74,0.58 -0.39,0.25 -1,0.09 -1.21,-0.32 -0.23,-0.44 -0.1,-0.95 0.32,-1.21z"/>
  <path class="fil25" d="M91.53 115.34c0,0 -2.68,3.64 -6.38,6.38 3,-3.75 6.38,-6.38 6.38,-6.38z"/>
  <path class="fil25" d="M84.63 114.87c0,0 4.16,3.2 7.42,7.42 -4.3,-3.55 -7.42,-7.42 -7.42,-7.42z"/>
  <path class="fil25" d="M71.14 89.49c0,0 -1.74,2.36 -4.14,4.14 1.95,-2.43 4.14,-4.14 4.14,-4.14z"/>
  <path class="fil25" d="M66.66 89.18c0,0 2.7,2.07 4.82,4.81 -2.79,-2.3 -4.82,-4.81 -4.82,-4.81z"/>
 </g>
</svg>
