<?xml version="1.0" encoding="UTF-8"?>
<!DOCTYPE svg PUBLIC "-//W3C//DTD SVG 1.1//EN" "http://www.w3.org/Graphics/SVG/1.1/DTD/svg11.dtd">
<!-- Creator: CorelDRAW 2020 (64-Bit) -->
<svg xmlns="http://www.w3.org/2000/svg" xml:space="preserve" width="12.779mm" height="9.2188mm" version="1.1" style="shape-rendering:geometricPrecision; text-rendering:geometricPrecision; image-rendering:optimizeQuality; fill-rule:evenodd; clip-rule:evenodd"
viewBox="0 0 875.09 631.29"
 xmlns:xlink="http://www.w3.org/1999/xlink"
 xmlns:xodm="http://www.corel.com/coreldraw/odm/2003">
 <defs>
  <style type="text/css">
   <![CDATA[
    .fil22 {fill:#FDE836;fill-rule:nonzero}
    .fil0 {fill:#F7F9F8;fill-rule:nonzero}
    .fil5 {fill:#EEEFEE;fill-rule:nonzero}
    .fil1 {fill:#DBDCDC;fill-rule:nonzero}
    .fil3 {fill:#D6EDF5;fill-rule:nonzero}
    .fil19 {fill:#CFEAEF;fill-rule:nonzero}
    .fil10 {fill:#CBE8ED;fill-rule:nonzero}
    .fil4 {fill:#C7C7C6;fill-rule:nonzero}
    .fil12 {fill:#C2E4E7;fill-rule:nonzero}
    .fil18 {fill:#BAE1E3;fill-rule:nonzero}
    .fil2 {fill:#B2DEEB;fill-rule:nonzero}
    .fil15 {fill:#B1D9DA;fill-rule:nonzero}
    .fil21 {fill:#AFD5D7;fill-rule:nonzero}
    .fil20 {fill:#ABDBE6;fill-rule:nonzero}
    .fil9 {fill:#A5D9E5;fill-rule:nonzero}
    .fil8 {fill:#9BD6F1;fill-rule:nonzero}
    .fil11 {fill:#99D4E0;fill-rule:nonzero}
    .fil17 {fill:#94D2DC;fill-rule:nonzero}
    .fil14 {fill:#88CDD7;fill-rule:nonzero}
    .fil16 {fill:#83CAD3;fill-rule:nonzero}
    .fil13 {fill:#7DCBDC;fill-rule:nonzero}
    .fil6 {fill:#283A90;fill-rule:nonzero}
    .fil7 {fill:#293A7D;fill-rule:nonzero}
   ]]>
  </style>
 </defs>
 <g id="Layer_x0020_1">
  <metadata id="CorelCorpID_0Corel-Layer"/>
  <polygon class="fil0" points="37.47,600.49 838.74,600.49 838.74,18.19 37.47,18.19 "/>
  <polygon class="fil1" points="125.58,579.26 311.71,579.26 311.71,223.92 125.58,223.92 "/>
  <polygon class="fil2" points="136.78,566.99 297.34,566.99 297.34,237.48 136.78,237.48 "/>
  <polygon class="fil3" points="136.78,369.81 297.34,251.12 297.34,260.51 136.78,383.87 "/>
  <polygon class="fil3" points="277.82,237.47 136.78,340.24 136.78,302.24 242.67,237.47 "/>
  <polygon class="fil3" points="297.34,401.6 297.34,533.26 250.45,566.99 136.78,566.99 136.78,510.38 "/>
  <polygon class="fil4" points="94.92,600.3 344.7,600.3 344.7,579.38 94.92,579.38 "/>
  <polygon class="fil1" points="361.67,469.39 763.4,469.39 763.4,223.92 361.67,223.92 "/>
  <polygon class="fil2" points="375.83,455.23 749.26,455.23 749.26,238.07 375.83,238.07 "/>
  <polygon class="fil3" points="642.77,238.07 375.83,387.44 375.83,309.48 512.32,238.07 "/>
  <polygon class="fil5" points="37.47,600.49 83.54,600.49 83.54,18.19 37.47,18.19 "/>
  <polygon class="fil5" points="791.97,600.49 838.04,600.49 838.04,18.19 791.97,18.19 "/>
  <polygon class="fil3" points="749.26,270.08 749.26,308.61 485.21,455.23 402.33,455.23 "/>
  <polygon class="fil6" points="79.55,101.61 -0,101.61 37.47,0 79.55,0 "/>
  <path class="fil7" d="M79.55 101.61l-79.55 0 0 26.28c0,21.96 17.8,39.79 39.77,39.79 21.98,0 39.79,-17.83 39.79,-39.79l0 -26.28z"/>
  <polygon class="fil2" points="79.55,101.61 159.1,101.61 159.1,0 79.55,0 "/>
  <path class="fil8" d="M159.1 101.61l-79.55 0 0 26.28c0,21.96 17.8,39.79 39.79,39.79 21.96,0 39.77,-17.83 39.77,-39.79l0 -26.28z"/>
  <polygon class="fil6" points="159.1,101.61 238.66,101.61 238.66,0 159.1,0 "/>
  <path class="fil7" d="M238.66 101.61l-79.55 0 0 26.28c0,21.96 17.8,39.79 39.79,39.79 21.96,0 39.77,-17.83 39.77,-39.79l0 -26.28z"/>
  <polygon class="fil2" points="238.66,101.61 318.21,101.61 318.21,0 238.66,0 "/>
  <path class="fil8" d="M318.21 101.61l-79.55 0 0 26.28c0,21.96 17.8,39.79 39.79,39.79 21.96,0 39.77,-17.83 39.77,-39.79l0 -26.28z"/>
  <polygon class="fil6" points="318.21,101.61 397.76,101.61 397.76,0 318.21,0 "/>
  <path class="fil7" d="M397.76 101.61l-79.55 0 0 26.28c0,21.96 17.83,39.79 39.79,39.79l0 0c21.96,0 39.77,-17.83 39.77,-39.79l0 -26.28z"/>
  <polygon class="fil2" points="397.76,101.61 477.34,101.61 477.34,0 397.76,0 "/>
  <path class="fil8" d="M477.34 101.61l-79.58 0 0 26.28c0,21.96 17.83,39.79 39.79,39.79 21.96,0 39.79,-17.83 39.79,-39.79l0 -26.28z"/>
  <polygon class="fil6" points="477.34,101.61 556.88,101.61 556.88,0 477.34,0 "/>
  <path class="fil7" d="M556.89 101.61l-79.55 0 0 26.28c0,21.96 17.8,39.79 39.76,39.79 21.99,0 39.79,-17.83 39.79,-39.79l0 -26.28z"/>
  <polygon class="fil2" points="556.89,101.61 636.44,101.61 636.44,0 556.89,0 "/>
  <path class="fil8" d="M636.44 101.61l-79.55 0 0 26.28c0,21.96 17.8,39.79 39.76,39.79 21.99,0 39.79,-17.83 39.79,-39.79l0 -26.28z"/>
  <polygon class="fil6" points="636.44,101.61 715.99,101.61 715.99,0 636.44,0 "/>
  <path class="fil7" d="M715.99 101.61l-79.55 0 0 26.28c0,21.96 17.8,39.79 39.76,39.79 21.99,0 39.79,-17.83 39.79,-39.79l0 -26.28z"/>
  <polygon class="fil2" points="715.99,101.61 795.54,101.61 795.54,0 715.99,0 "/>
  <path class="fil8" d="M795.54 101.61l-79.55 0 0 26.28c0,21.96 17.8,39.79 39.79,39.79 21.95,0 39.76,-17.83 39.76,-39.79l0 -26.28z"/>
  <polygon class="fil6" points="875.09,101.61 795.54,101.61 795.54,0 838.74,0 "/>
  <path class="fil7" d="M875.09 101.61l-79.55 0 0 26.28c0,21.96 17.8,39.79 39.79,39.79l0 0c21.95,0 39.76,-17.83 39.76,-39.79l0 -26.28z"/>
  <polygon class="fil6" points="37.47,631.29 838.74,631.29 838.74,600.49 37.47,600.49 "/>
  <polygon class="fil9" points="719.64,285.89 676.71,285.89 676.71,281.43 684.97,281.43 684.97,282.11 687.87,282.11 687.87,281.43 727.97,281.43 "/>
  <polygon class="fil10" points="749.26,285.89 719.64,285.89 727.97,281.43 749.26,281.43 "/>
  <path class="fil9" d="M673.79 285.89l-66.97 0 0 -4.45 8.27 0 0 0.68 2.9 0 0 -0.68 55.8 0 0 4.45zm-69.88 0l-46.6 0 7.94 -4.45 38.66 0 0 4.45z"/>
  <polygon class="fil10" points="557.3,285.89 536.91,285.89 536.91,281.43 545.2,281.43 545.2,282.11 548.09,282.11 548.09,281.43 565.25,281.43 "/>
  <polygon class="fil9" points="420.93,285.89 375.83,285.89 375.83,281.43 429.43,281.43 "/>
  <polygon class="fil10" points="534.01,285.89 420.93,285.89 429.43,281.43 534.01,281.43 "/>
  <path class="fil11" d="M730.61 455.23l-48.61 0 0 -109.29 42.42 -23.56c4.71,5.07 7.42,11.38 7.42,21.52l0 99c0,4.25 -0.44,8.38 -1.23,12.32zm-17.03 -48.67l-27.73 32.32 -0.14 0.9 0.19 0.46 1.5 0.24 27.54 -32.76 0.22 -0.58 -1.57 -0.58zm1.64 -10.03l-24.28 28.29 -0.12 0.79 0.16 0.41 1.31 0.19 24.1 -28.67 0.2 -0.51 -1.38 -0.51zm-33.22 -90.54l0 -6.21c2.68,0.17 5.34,0.82 7.9,1.98l-7.9 4.23z"/>
  <path class="fil12" d="M682 345.94l0 -39.96 7.9 -4.23c1.43,0.63 2.83,1.42 4.18,2.35l21.24 10.77c3.53,2.42 6.62,4.78 9.11,7.51l-42.42 23.56z"/>
  <path class="fil11" d="M679 455.23l-18.28 0c0.79,-3.94 1.23,-8.07 1.23,-12.32l0 -68.88 13.09 -15.58 0.19 -0.58 -1.55 -0.58 -11.74 13.7 0 -5.39 13.46 -15.99 3.6 -2.01 0 107.62zm-17.05 -92.35l0 -5.8 9.49 -5.27 -9.49 11.07zm-8.53 -41.65c-2.27,-2.23 -4.91,-4.23 -7.88,-6.28 0,0 0,0 0,-0.03l21.89 -10.94c3.64,-2.49 7.58,-3.87 11.57,-4.18l0 7.78 -25.58 13.65z"/>
  <path class="fil12" d="M661.95 357.08l0 -13.17c0,-10.94 -3.14,-17.39 -8.53,-22.68l25.58 -13.65 0 40.03 -3.6 2.01 1.11 -1.33 0.17 -0.49 -1.36 -0.51 -3.89 4.52 -9.49 5.27z"/>
  <path class="fil13" d="M679 299.8l0 -0.66 0.39 0 0 0.61 0.73 0c-0.39,0 -0.75,0.02 -1.12,0.05zm3 -0.03c-0.27,0 -0.51,-0.02 -0.77,-0.02l0.77 0 0 0.02z"/>
  <path class="fil14" d="M682 455.23l-3 0 0 -107.62 3 -1.66 0 109.29zm-3 -147.65l0 -7.78c0.36,-0.03 0.73,-0.05 1.12,-0.05l1.11 0c0.27,0 0.51,0.02 0.77,0.02l0 6.21 -3 1.6z"/>
  <polygon class="fil15" points="679,347.61 679,307.58 682,305.98 682,345.94 "/>
  <path class="fil16" d="M682.29 299.75l-2.9 0 0 -7.9 -1.36 -1.36c-2.34,0 -4.25,-1.88 -4.25,-4.23l0 -5.92c0,-2.34 1.91,-4.25 4.25,-4.25l5.58 0c2.34,0 4.25,1.91 4.25,4.25l0 1.76 -2.9 0 0 -1.76 -1.36 -1.36 -5.58 0 -1.33 1.36 0 5.92 1.33 1.33c2.35,0 4.25,1.91 4.25,4.25l0 7.9z"/>
  <polygon class="fil9" points="661.95,374.03 661.95,370.99 673.69,357.3 675.24,357.87 675.05,358.45 "/>
  <polygon class="fil9" points="661.95,365.6 661.95,362.88 671.44,351.81 675.41,349.61 "/>
  <polygon class="fil10" points="671.44,351.81 675.33,347.29 676.69,347.8 676.52,348.28 675.41,349.61 "/>
  <polygon class="fil9" points="687.39,440.47 685.89,440.23 685.7,439.77 685.84,438.87 713.58,406.55 715.15,407.13 714.93,407.71 "/>
  <polygon class="fil9" points="692.3,426.21 690.99,426.02 690.82,425.61 690.94,424.82 715.22,396.53 716.6,397.03 716.4,397.54 "/>
  <path class="fil9" d="M660.72 455.23l-48.61 0 0 -70.46 49.84 -27.69 0 85.83c0,4.25 -0.44,8.38 -1.23,12.32zm-17.03 -48.67l-27.73 32.32 -0.14 0.9 0.19 0.46 1.5 0.24 27.54 -32.76 0.22 -0.58 -1.57 -0.58zm1.64 -10.03l-24.28 28.29 -0.12 0.79 0.14 0.41 1.33 0.19 24.11 -28.67 0.19 -0.51 -1.38 -0.51zm-33.22 -53.24l0 -43.51c4.16,0.27 8.27,1.69 12.08,4.33l21.24 10.77c0.05,0.02 0.07,0.05 0.12,0.08 2.97,2.05 5.61,4.05 7.88,6.28l-41.31 22.06z"/>
  <path class="fil10" d="M612.11 384.76l0 -41.48 41.31 -22.06c5.38,5.29 8.53,11.74 8.53,22.68l0 13.17 -49.84 27.69z"/>
  <path class="fil9" d="M609.12 455.23l-18.29 0c0.79,-3.94 1.23,-8.07 1.23,-12.32l0 -47.01 17.06 -9.47 0 68.8zm-17.06 -101.25l0 -10.07c0,-15.53 -6.35,-22 -16.4,-28.96 0,0 0,0 0,-0.03l21.89 -10.94c3.64,-2.49 7.59,-3.87 11.57,-4.18l0 45.07 -17.06 9.11z"/>
  <polygon class="fil10" points="592.06,395.9 592.06,374.03 605.16,358.45 605.35,357.87 603.8,357.3 592.06,370.99 592.06,365.6 606.63,348.28 606.8,347.8 605.44,347.29 592.06,362.88 592.06,353.98 609.12,344.87 609.12,386.43 "/>
  <path class="fil13" d="M609.12 299.8l0 -0.66 0.38 0 0 0.61 0.7 0c-0.36,0 -0.72,0.02 -1.08,0.05zm2.99 -0.03c-0.27,0 -0.53,-0.02 -0.77,-0.02l0.77 0 0 0.02z"/>
  <path class="fil17" d="M612.11 455.23l-2.99 0 0 -68.8 2.99 -1.66 0 70.46zm-2.99 -110.35l0 -45.07c0.36,-0.03 0.72,-0.05 1.08,-0.05l1.14 0c0.24,0 0.51,0.02 0.77,0.02l0 43.51 -2.99 1.59z"/>
  <polygon class="fil18" points="609.12,386.43 609.12,344.87 612.11,343.29 612.11,384.76 "/>
  <path class="fil16" d="M612.4 299.75l-2.9 0 0 -7.9 -1.36 -1.36c-2.34,0 -4.25,-1.88 -4.25,-4.23l0 -5.92c0,-2.34 1.9,-4.25 4.25,-4.25l5.58 0c2.35,0 4.25,1.91 4.25,4.25l0 1.76 -2.9 0 0 -1.76 -1.36 -1.36 -5.58 0 -1.33 1.36 0 5.92 1.33 1.33c2.35,0 4.25,1.91 4.25,4.25l0 7.9z"/>
  <polygon class="fil19" points="592.06,374.03 592.06,370.99 603.8,357.3 605.35,357.87 605.16,358.45 "/>
  <polygon class="fil19" points="592.06,365.6 592.06,362.88 605.44,347.29 606.8,347.8 606.63,348.28 "/>
  <polygon class="fil20" points="617.5,440.47 616,440.23 615.81,439.77 615.95,438.87 643.69,406.55 645.26,407.13 645.04,407.71 "/>
  <polygon class="fil20" points="622.41,426.21 621.08,426.02 620.93,425.61 621.05,424.82 645.33,396.53 646.71,397.03 646.52,397.54 "/>
  <path class="fil11" d="M539.23 455.23l-48.78 0c-0.19,-0.87 -0.36,-1.74 -0.51,-2.63l49.28 -27.35 0 29.98zm-50.15 -46.28l0 -64.84c0,-15.68 6.48,-22.26 16.7,-29.19l21.86 -10.94c3.68,-2.49 7.61,-3.87 11.6,-4.18l0 82.37 -50.15 26.77zm44.84 -51.65l-27.73 32.32 -0.14 0.89 0.16 0.46 1.5 0.25 27.56 -32.76 0.19 -0.58 -1.54 -0.58zm1.64 -10l-24.28 28.27 -0.14 0.79 0.17 0.41 1.33 0.22 24.1 -28.7 0.17 -0.49 -1.35 -0.51z"/>
  <path class="fil12" d="M489.95 452.6c-0.58,-3.36 -0.87,-6.84 -0.87,-10.42l0 -33.24 50.15 -26.77 0 43.07 -49.28 27.35z"/>
  <path class="fil11" d="M590.83 455.23l-48.61 0 0 -31.64 19.13 -10.63 -10.2 11.86 -0.12 0.79 0.14 0.41 1.33 0.19 13.19 -15.67 26.36 -14.64 0 47.01c0,4.25 -0.44,8.38 -1.23,12.32zm-17.03 -48.67l-27.73 32.32 -0.14 0.9 0.19 0.46 1.5 0.24 27.54 -32.76 0.19 -0.58 -1.55 -0.58zm-31.58 -25.97l0 -80.81c4.13,0.27 8.27,1.69 12.08,4.33l21.24 10.77c0.03,0.02 0.08,0.05 0.12,0.08 10.05,6.96 16.4,13.43 16.4,28.96l0 10.07 -49.84 26.6z"/>
  <polygon class="fil12" points="542.22,423.58 542.22,380.58 592.06,353.98 592.06,395.9 565.7,410.54 576.63,397.54 576.79,397.03 575.44,396.53 561.36,412.96 "/>
  <path class="fil13" d="M539.23 299.8l0 -0.66 0.36 0 0 0.61 0.72 0c-0.36,0 -0.72,0.02 -1.08,0.05zm2.99 -0.03c-0.27,0 -0.53,-0.02 -0.79,-0.02l0.79 0 0 0.02z"/>
  <path class="fil14" d="M542.22 455.23l-2.99 0 0 -29.98 2.99 -1.66 0 31.64zm-2.99 -73.05l0 -82.37c0.36,-0.03 0.73,-0.05 1.08,-0.05l1.12 0c0.27,0 0.53,0.02 0.79,0.02l0 80.81 -2.99 1.6z"/>
  <polygon class="fil15" points="539.23,425.25 539.23,382.17 542.22,380.58 542.22,423.58 "/>
  <polygon class="fil16" points="542.52,299.75 539.59,299.75 539.59,295.79 542.52,294.17 "/>
  <path class="fil21" d="M539.59 295.79l0 -3.94 -1.33 -1.36c-2.35,0 -4.25,-1.88 -4.25,-4.23l0 -5.92c0,-2.34 1.9,-4.25 4.25,-4.25l5.58 0c2.34,0 4.25,1.91 4.25,4.25l0 1.76 -2.9 0 0 -1.76 -1.35 -1.36 -5.58 0 -1.36 1.36 0 5.92 1.36 1.33c2.34,0 4.25,1.91 4.25,4.25l0 2.32 -2.92 1.62z"/>
  <polygon class="fil9" points="507.7,391.21 506.2,390.97 506.04,390.51 506.18,389.62 533.92,357.3 535.46,357.87 535.27,358.45 "/>
  <polygon class="fil9" points="512.63,376.98 511.31,376.76 511.13,376.35 511.28,375.56 535.56,347.29 536.91,347.8 536.74,348.28 "/>
  <polygon class="fil9" points="547.61,440.47 546.11,440.23 545.92,439.77 546.07,438.87 573.8,406.55 575.35,407.13 575.15,407.71 "/>
  <polygon class="fil9" points="552.52,426.21 551.19,426.02 551.04,425.61 551.16,424.82 561.36,412.96 565.7,410.54 "/>
  <polygon class="fil10" points="561.36,412.96 575.44,396.53 576.79,397.03 576.63,397.54 565.7,410.54 "/>
  <path class="fil22" d="M259.53 381.48l-87.28 0c-5.79,0 -10.48,-4.68 -10.48,-10.46l0 -14.37c0,-5.77 4.69,-10.46 10.48,-10.46l87.28 0c5.77,0 10.46,4.68 10.46,10.46l0 14.37c0,5.78 -4.69,10.46 -10.46,10.46z"/>
  <path class="fil7" d="M187.76 363.43l1.11 4.44 3.36 1.5c2.99,0 4.46,-1.99 4.46,-5.94 0,-3.96 -1.47,-5.97 -4.44,-5.97l-3.36 1.5 -1.14 4.47zm12.87 0c0,2.92 -0.72,5.17 -2.17,6.74 -1.45,1.55 -3.53,2.34 -6.23,2.34 -2.7,0 -4.79,-0.79 -6.21,-2.34 -1.45,-1.57 -2.17,-3.84 -2.17,-6.77 0,-2.94 0.72,-5.17 2.17,-6.71 1.45,-1.55 3.53,-2.35 6.23,-2.35 2.7,0 4.79,0.8 6.23,2.35 1.43,1.57 2.15,3.81 2.15,6.74z"/>
  <path class="fil7" d="M208.03 362.95l1.23 0 2.58 -0.7 0.85 -1.98 -0.73 -1.94 -2.25 -0.62 -1.69 0 0 5.24zm8.43 -2.8l-1.76 4.35c-1.18,0.99 -2.88,1.5 -5.07,1.5l-1.6 0 0 6.28 -3.75 0 0 -17.63 5.63 0 4.88 1.38 1.66 4.13z"/>
  <polygon class="fil7" points="229.96,372.27 219.79,372.27 219.79,354.64 229.96,354.64 229.96,357.71 223.54,357.71 223.54,361.57 229.5,361.57 229.5,364.64 223.54,364.64 223.54,369.18 229.96,369.18 "/>
  <path class="fil7" d="M249.26 372.27l-4.74 0 -7.68 -13.33 -0.1 0c0.15,2.34 0.22,4.03 0.22,5.02l0 8.31 -3.33 0 0 -17.63 4.71 0 7.66 13.21 0.1 0c-0.12,-2.29 -0.2,-3.91 -0.2,-4.88l0 -8.33 3.36 0 0 17.63z"/>
 </g>
</svg>
